<svg width="142" height="36" viewBox="0 0 142 36" fill="none" xmlns="http://www.w3.org/2000/svg">
<path d="M12 22C11.4375 22 10.9635 21.8073 10.5781 21.4219C10.1927 21.026 10 20.5521 10 20V16H12V19C12 19.2812 12.0938 19.5208 12.2812 19.7188C12.4792 19.9062 12.7188 20 13 20H22C22 20.5625 21.8021 21.0365 21.4062 21.4219C21.0104 21.8073 20.5417 22 20 22H12ZM10 14V12H22C22 12.5625 21.8021 13.0365 21.4062 13.4219C21.0104 13.8073 20.5417 14 20 14H10ZM24 22V16C24 15.4479 24.1927 14.9792 24.5781 14.5938C24.974 14.1979 25.4479 14 26 14H34V22H32V16H27C26.7188 16 26.4792 16.099 26.2812 16.2969C26.0938 16.4948 26 16.7292 26 17V20H32C32 20.5625 31.8021 21.0365 31.4062 21.4219C31.0104 21.8073 30.5417 22 30 22H24ZM36 22V12H38V22H36ZM42 22C41.4375 22 40.9635 21.8073 40.5781 21.4219C40.1927 21.026 40 20.5521 40 20V16C40 15.4479 40.1927 14.9792 40.5781 14.5938C40.974 14.1979 41.4479 14 42 14H50L47 17H50L48 19H43L46 16H43C42.7188 16 42.4792 16.099 42.2812 16.2969C42.0938 16.4948 42 16.7292 42 17V19C42 19.2812 42.0938 19.5208 42.2812 19.7188C42.4792 19.9062 42.7188 20 43 20H50C50 20.5625 49.8021 21.0365 49.4062 21.4219C49.0104 21.8073 48.5417 22 48 22H42ZM52 22V20H59C59.2708 20 59.5052 19.9062 59.7031 19.7188C59.901 19.5208 60 19.2812 60 19V16H52V12H54V14H62V20C62 20.5625 61.8021 21.0365 61.4062 21.4219C61.0104 21.8073 60.5417 22 60 22H52Z" fill="#2C40F2" fill-opacity="0.75"/>
<path d="M72 22V14L70 12H73L80 19V12H82V22H80L74 16V22H72ZM92 24V22H86C85.4479 22 84.974 21.8073 84.5781 21.4219C84.1927 21.0365 84 20.5625 84 20V14H86V19C86 19.2812 86.0938 19.5208 86.2812 19.7188C86.4792 19.9062 86.7188 20 87 20H92V14H94V22C94 22.5521 93.8021 23.0208 93.4062 23.4062C93.0104 23.8021 92.5417 24 92 24ZM103 20C103.271 20 103.505 19.9062 103.703 19.7188C103.901 19.5208 104 19.2812 104 19V16H98V19C98 19.2812 98.0938 19.5208 98.2812 19.7188C98.4792 19.9062 98.7188 20 99 20H103ZM98 22C97.4375 22 96.9635 21.8073 96.5781 21.4219C96.1927 21.026 96 20.5521 96 20V14H106V20C106 20.5625 105.802 21.0365 105.406 21.4219C105.01 21.8073 104.542 22 104 22H98ZM108 22V14H116C116.552 14 117.021 14.1979 117.406 14.5938C117.802 14.9896 118 15.4583 118 16V22H116V17C116 16.7292 115.901 16.4948 115.703 16.2969C115.505 16.099 115.271 16 115 16H110V22H108ZM128 24V22H122C121.448 22 120.974 21.8073 120.578 21.4219C120.193 21.0365 120 20.5625 120 20V14H130C130 14.5625 129.802 15.0365 129.406 15.4219C129.01 15.8073 128.542 16 128 16H122V19C122 19.2812 122.094 19.5208 122.281 19.7188C122.479 19.9062 122.719 20 123 20H128V18H130V22C130 22.5521 129.802 23.0208 129.406 23.4062C129.01 23.8021 128.542 24 128 24Z" fill="#1E1E1E"/>
</svg>
